<svg xmlns="http://www.w3.org/2000/svg" xmlns:xlink="http://www.w3.org/1999/xlink" width="500" zoomAndPan="magnify" viewBox="0 0 375 374.999991" height="500" preserveAspectRatio="xMidYMid meet" version="1.0"><defs><g/><clipPath id="2839e2dd23"><path d="M 81.214844 106.464844 L 131 106.464844 L 131 268.464844 L 81.214844 268.464844 Z M 81.214844 106.464844 " clip-rule="nonzero"/></clipPath><clipPath id="861bec4b55"><path d="M 239 106.464844 L 288.351562 106.464844 L 288.351562 268.464844 L 239 268.464844 Z M 239 106.464844 " clip-rule="nonzero"/></clipPath></defs><rect x="-37.5" width="450" fill="transparent" y="-37.499999" height="449.999989" fill-opacity="1"/><rect x="-37.5" width="450" fill="transparent" y="-37.499999" height="449.999989" fill-opacity="1"/><g clip-path="url(#2839e2dd23)"><path fill="#0079FF" d="M 126.222656 124.464844 L 130.722656 124.464844 L 130.722656 106.464844 L 126.222656 106.464844 C 111.320312 106.464844 99.238281 118.554688 99.238281 133.464844 L 99.238281 164.964844 C 99.238281 167.800781 97.90625 170.464844 95.640625 172.167969 L 84.847656 180.265625 C 82.6875 181.886719 81.371094 184.394531 81.257812 187.09375 C 81.144531 189.792969 82.25 192.398438 84.269531 194.195312 L 96.21875 204.820312 C 98.140625 206.527344 99.238281 208.976562 99.238281 211.546875 L 99.238281 241.464844 C 99.238281 256.378906 111.320312 268.464844 126.222656 268.464844 L 130.722656 268.464844 L 130.722656 250.464844 L 126.222656 250.464844 C 121.257812 250.464844 117.230469 246.4375 117.230469 241.464844 L 117.230469 211.546875 C 117.230469 203.835938 113.933594 196.488281 108.167969 191.367188 L 104.449219 188.058594 L 106.433594 186.566406 C 113.230469 181.46875 117.230469 173.464844 117.230469 164.964844 L 117.230469 133.464844 C 117.230469 128.496094 121.257812 124.464844 126.222656 124.464844 Z M 126.222656 124.464844 " fill-opacity="1" fill-rule="evenodd"/></g><g clip-path="url(#861bec4b55)"><path fill="#0079FF" d="M 243.5625 124.464844 L 239.0625 124.464844 L 239.0625 106.464844 L 243.5625 106.464844 C 258.46875 106.464844 270.550781 118.554688 270.550781 133.464844 L 270.550781 164.964844 C 270.550781 167.800781 271.882812 170.464844 274.148438 172.167969 L 284.941406 180.265625 C 287.101562 181.886719 288.421875 184.394531 288.53125 187.09375 C 288.644531 189.792969 287.539062 192.398438 285.519531 194.195312 L 273.570312 204.820312 C 271.648438 206.527344 270.550781 208.976562 270.550781 211.546875 L 270.550781 241.464844 C 270.550781 256.378906 258.46875 268.464844 243.5625 268.464844 L 239.0625 268.464844 L 239.0625 250.464844 L 243.5625 250.464844 C 248.53125 250.464844 252.558594 246.4375 252.558594 241.464844 L 252.558594 211.546875 C 252.558594 203.835938 255.855469 196.488281 261.617188 191.367188 L 265.339844 188.058594 L 263.351562 186.566406 C 256.558594 181.46875 252.558594 173.464844 252.558594 164.964844 L 252.558594 133.464844 C 252.558594 128.496094 248.53125 124.464844 243.5625 124.464844 Z M 243.5625 124.464844 " fill-opacity="1" fill-rule="evenodd"/></g><g fill="#0079FF" fill-opacity="1"><g transform="translate(130.593629, 224.815255)"><g><path d="M 50.671875 0 L 6.796875 0 L 6.796875 -69.109375 C 6.796875 -69.171875 6.691406 -69.679688 6.484375 -70.640625 C 6.273438 -71.609375 6.050781 -72.601562 5.8125 -73.625 C 5.570312 -74.65625 5.453125 -75.242188 5.453125 -75.390625 L 21.109375 -75.390625 L 21.109375 -10.203125 L 50.671875 -10.203125 Z M 50.671875 0 "/></g></g></g><g fill="#0079FF" fill-opacity="1"><g transform="translate(179.407873, 224.815255)"><g><path d="M 64.78125 0 L 49.53125 0 L 42.125 -21.625 L 19.875 -21.625 L 12.15625 0 L 0.203125 0 L 26.875 -75.390625 L 38.109375 -75.390625 Z M 38.71875 -31.71875 C 35.425781 -41.8125 32.816406 -50.394531 30.890625 -57.46875 C 28.554688 -48.882812 26.050781 -40.300781 23.375 -31.71875 Z M 38.71875 -31.71875 "/></g></g></g></svg>